HIERARCHY
ROOT Hips
{
	OFFSET -0.001795 -0.223333 0.028219
	CHANNELS 6 Xposition Yposition Zposition Zrotation Yrotation Xrotation
	JOINT LeftUpLeg
	{
		OFFSET 0.069520 -0.091406 -0.006815
		CHANNELS 3 Zrotation Yrotation Xrotation
		JOINT LeftLeg
		{
			OFFSET 0.034277 -0.375199 -0.004496
			CHANNELS 3 Zrotation Yrotation Xrotation
			JOINT LeftFoot
			{
				OFFSET -0.013596 -0.397961 -0.043693
				CHANNELS 3 Zrotation Yrotation Xrotation
				JOINT LeftToe
				{
					OFFSET 0.026358 -0.055791 0.119288
					CHANNELS 3 Zrotation Yrotation Xrotation
					End Site
					{
						OFFSET 0.000000 0.000000 0.000000
					}
				}
			}
		}
	}
	JOINT RightUpLeg
	{
		OFFSET -0.067670 -0.090522 -0.004320
		CHANNELS 3 Zrotation Yrotation Xrotation
		JOINT RightLeg
		{
			OFFSET -0.038290 -0.382569 -0.008850
			CHANNELS 3 Zrotation Yrotation Xrotation
			JOINT RightFoot
			{
				OFFSET 0.015774 -0.398415 -0.042312
				CHANNELS 3 Zrotation Yrotation Xrotation
				JOINT RightToe
				{
					OFFSET -0.025372 -0.048144 0.123348
					CHANNELS 3 Zrotation Yrotation Xrotation
					End Site
					{
						OFFSET 0.000000 0.000000 0.000000
					}
				}
			}
		}
	}
	JOINT Spine
	{
		OFFSET -0.002533 0.108963 -0.026696
		CHANNELS 3 Zrotation Yrotation Xrotation
		JOINT Spine1
		{
			OFFSET 0.005487 0.135180 0.001092
			CHANNELS 3 Zrotation Yrotation Xrotation
			JOINT Spine2
			{
				OFFSET 0.001457 0.052922 0.025425
				CHANNELS 3 Zrotation Yrotation Xrotation
				JOINT Neck
				{
					OFFSET -0.002778 0.213870 -0.042857
					CHANNELS 3 Zrotation Yrotation Xrotation
					JOINT Head
					{
						OFFSET 0.005152 0.064970 0.051349
						CHANNELS 3 Zrotation Yrotation Xrotation
						End Site
						{
							OFFSET 0.000000 0.000000 0.000000
						}
					}
				}
				JOINT LeftShoulder
				{
					OFFSET 0.078845 0.121749 -0.034090
					CHANNELS 3 Zrotation Yrotation Xrotation
					JOINT LeftArm
					{
						OFFSET 0.090977 0.030469 -0.008868
						CHANNELS 3 Zrotation Yrotation Xrotation
						JOINT LeftForeArm
						{
							OFFSET 0.259612 -0.012772 -0.027456
							CHANNELS 3 Zrotation Yrotation Xrotation
							JOINT LeftHand
							{
								OFFSET 0.249234 0.008986 -0.001171
								CHANNELS 3 Zrotation Yrotation Xrotation
								End Site
								{
									OFFSET 0.000000 0.000000 0.000000
								}
							}
						}
					}
				}
				JOINT RightShoulder
				{
					OFFSET -0.081759 0.118833 -0.038615
					CHANNELS 3 Zrotation Yrotation Xrotation
					JOINT RightArm
					{
						OFFSET -0.096012 0.032551 -0.009143
						CHANNELS 3 Zrotation Yrotation Xrotation
						JOINT RightForeArm
						{
							OFFSET -0.253742 -0.013329 -0.021401
							CHANNELS 3 Zrotation Yrotation Xrotation
							JOINT RightHand
							{
								OFFSET -0.255298 0.007772 -0.005559
								CHANNELS 3 Zrotation Yrotation Xrotation
								End Site
								{
									OFFSET 0.000000 0.000000 0.000000
								}
							}
						}
					}
				}
			}
		}
	}
}
MOTION
Frames: 14
Frame Time: 0.050000
0.000000 0.918819 0.000000 -2.867967 10.160926 -5.446056 10.712127 -0.505747 8.104753 -11.173331 1.193717 5.515052 9.765465 19.215661 3.020479 0.000000 0.000000 0.000000 -8.576539 -0.086586 -2.753200 6.068704 -0.894659 3.304623 -7.302307 -17.520771 14.557558 0.000000 0.000000 0.000000 1.327201 -0.437770 7.836933 2.173425 0.244893 -22.192266 -1.265549 -3.231070 23.512517 8.965323 -4.317517 -19.854367 0.000000 0.000000 0.000000 -19.622458 -12.117150 4.471427 -46.290696 -31.007074 4.549743 -54.134445 -73.186881 45.809808 0.000000 0.000000 0.000000 17.382787 2.285070 1.042330 40.038368 21.248529 0.634955 -73.255946 48.648341 -30.501969 0.000000 0.000000 0.000000
-0.000602 0.919117 0.001599 -2.830805 9.892365 -4.962122 10.702768 -0.502409 8.187853 -11.227738 1.168794 4.687259 9.832314 19.383366 3.318192 0.000000 0.000000 0.000000 -9.046831 -0.084271 -3.164989 6.966425 -1.036273 3.173531 -7.170470 -17.317782 14.571431 0.000000 0.000000 0.000000 0.171246 -0.399673 8.363542 3.510467 -0.090461 -23.245255 -0.708690 -3.748388 23.205253 10.610555 -5.628581 -19.411518 0.000000 0.000000 0.000000 -20.125681 -12.266055 4.762960 -43.386833 -33.118793 4.877618 -65.170933 -73.817292 55.833547 0.000000 0.000000 0.000000 16.426440 2.327565 0.867396 41.762135 21.920905 1.118982 -75.795806 46.284731 -30.301940 0.000000 0.000000 0.000000
-0.001049 0.918153 0.002259 -2.515482 8.441361 -5.125058 10.205655 -0.394340 9.018101 -11.269042 1.201618 4.194865 10.416187 20.474191 3.569090 0.000000 0.000000 0.000000 -9.712624 -0.076014 -3.807460 7.705498 -1.172459 4.297511 -6.501290 -16.295968 13.728482 0.000000 0.000000 0.000000 0.484946 -0.446454 8.956080 3.890368 -0.179881 -24.069877 -1.458368 -1.941096 23.763763 10.944168 -5.571046 -20.138432 0.000000 0.000000 0.000000 -18.349874 -12.506779 4.635612 -43.002124 -35.584710 5.693462 -59.738416 -75.433525 52.107275 0.000000 0.000000 0.000000 17.950859 2.334827 1.089100 39.932754 21.836768 0.797680 -78.593504 45.095857 -30.587761 0.000000 0.000000 0.000000
-0.001714 0.917684 0.002537 -2.462823 8.298936 -5.823425 10.520960 -0.418536 9.507028 -11.800939 1.304234 4.770364 10.388412 20.441098 3.586912 0.000000 0.000000 0.000000 -9.647622 -0.093124 -3.359943 7.561304 -1.167220 4.867968 -6.411756 -16.161379 13.309515 0.000000 0.000000 0.000000 0.494802 -0.523413 10.228841 3.864295 -0.214186 -23.462353 -1.329152 -2.658054 22.654183 10.138539 -5.174749 -19.721619 0.000000 0.000000 0.000000 -17.873960 -12.689627 4.886120 -42.030741 -37.478316 6.291636 -58.558847 -75.981101 51.631013 0.000000 0.000000 0.000000 17.674153 2.913642 1.165319 39.850111 21.616763 0.877271 -79.773119 43.642972 -30.464864 0.000000 0.000000 0.000000
-0.002526 0.916958 0.002741 -2.304832 8.209164 -6.190642 10.359338 -0.382883 9.440906 -11.697049 1.350999 5.703150 10.469472 20.574741 3.437106 0.000000 0.000000 0.000000 -9.705094 -0.108198 -3.014124 7.450915 -1.150249 5.001833 -6.371066 -16.103565 12.866578 0.000000 0.000000 0.000000 0.088841 -0.546895 11.202255 4.631918 -0.404156 -23.773176 -1.334330 -2.678896 22.446155 9.178541 -4.487559 -19.971182 0.000000 0.000000 0.000000 -17.224382 -13.483277 5.290826 -40.249731 -39.140244 6.495610 -61.128968 -78.879827 56.231309 0.000000 0.000000 0.000000 17.474282 3.391078 1.381499 39.512025 21.013305 0.687723 -81.008880 44.190136 -31.723162 0.000000 0.000000 0.000000
-0.003193 0.917268 0.003044 -2.384003 7.764395 -6.327425 10.419827 -0.359400 9.183838 -11.653101 1.410395 6.543087 10.665827 20.961046 3.749048 0.000000 0.000000 0.000000 -9.358835 -0.080364 -3.048308 7.122912 -1.086011 5.183736 -6.190138 -15.812509 12.778046 0.000000 0.000000 0.000000 -0.386397 -0.538192 11.825431 5.462479 -0.623284 -24.017998 -0.936701 -2.400894 22.729625 8.176633 -3.823451 -19.992642 0.000000 0.000000 0.000000 -17.422480 -13.404482 5.286186 -39.416760 -40.661840 6.787813 -62.747015 -80.510897 59.141380 0.000000 0.000000 0.000000 17.152496 3.759941 1.564019 39.394663 21.148796 0.709322 -81.911208 43.325596 -31.521727 0.000000 0.000000 0.000000
-0.003770 0.917180 0.003391 -2.212537 7.718776 -6.318009 10.301170 -0.339814 9.102504 -11.700988 1.431693 6.756110 10.673046 20.987047 3.851389 0.000000 0.000000 0.000000 -9.334649 -0.080211 -2.949641 6.828972 -1.027096 5.052783 -6.185586 -15.808089 12.602456 0.000000 0.000000 0.000000 -0.628776 -0.530277 12.106023 5.581086 -0.687187 -23.507279 -0.906430 -2.238346 22.341152 7.685422 -3.477954 -19.928328 0.000000 0.000000 0.000000 -17.650052 -13.471623 5.293885 -39.451740 -41.283054 7.059722 -71.375687 -82.439384 69.001804 0.000000 0.000000 0.000000 17.445094 3.995937 1.697160 39.309579 21.219314 0.748531 -82.799454 42.220420 -31.037276 0.000000 0.000000 0.000000
-0.004178 0.917805 0.003856 -2.320442 7.914458 -6.287287 10.552696 -0.371042 8.830561 -11.810531 1.457664 7.104600 10.557050 20.800295 4.063296 0.000000 0.000000 0.000000 -8.967505 -0.072618 -2.704130 6.438394 -0.950085 4.646952 -6.277777 -15.960697 12.817550 0.000000 0.000000 0.000000 -0.727544 -0.545561 12.512818 5.854362 -0.740620 -23.711722 -0.740968 -1.800549 22.676125 7.074055 -2.982107 -20.074839 0.000000 0.000000 0.000000 -18.481468 -13.430773 5.181618 -40.367937 -41.739979 7.454106 -82.177417 -83.778308 80.766522 0.000000 0.000000 0.000000 17.465594 3.430478 1.531855 39.464910 21.483022 0.773285 -83.758855 41.642602 -30.760600 0.000000 0.000000 0.000000
-0.004554 0.918343 0.004286 -2.262661 8.405929 -6.368841 10.773306 -0.420888 9.006814 -12.104410 1.462412 6.835124 10.246122 20.266601 4.188338 0.000000 0.000000 0.000000 -9.067940 -0.104968 -2.121403 6.513463 -0.955004 3.994773 -6.448847 -16.237982 13.069772 0.000000 0.000000 0.000000 -0.698198 -0.578069 12.943600 5.749757 -0.702174 -23.722510 -0.919315 -1.893971 22.693157 6.298154 -2.359668 -20.620800 0.000000 0.000000 0.000000 -19.232637 -12.800805 4.808200 -42.383472 -41.891606 8.095732 -89.942104 -83.487054 88.249863 0.000000 0.000000 0.000000 17.828438 3.211377 1.469166 39.704519 21.664912 0.823493 -84.162335 40.869873 -30.159548 0.000000 0.000000 0.000000
-0.004920 0.918632 0.004592 -2.249261 8.958427 -6.474698 11.248680 -0.496145 8.924559 -12.730598 1.532939 7.011955 9.901044 19.682862 4.296042 0.000000 0.000000 0.000000 -8.967838 -0.132222 -1.517083 6.312781 -0.914752 3.351042 -6.671909 -16.598749 13.261998 0.000000 0.000000 0.000000 -0.760555 -0.604347 13.383737 6.032483 -0.776437 -23.566015 -1.260957 -1.498678 22.355506 5.746664 -1.886556 -20.514527 0.000000 0.000000 0.000000 -19.900378 -12.818452 4.608207 -43.700976 -41.350532 8.326671 -98.382062 -83.721261 96.766883 0.000000 0.000000 0.000000 18.240325 3.130992 1.593059 39.694090 21.427226 0.724838 -84.442095 40.560089 -29.734782 0.000000 0.000000 0.000000
-0.005310 0.918200 0.004891 -2.216148 9.654439 -6.625725 11.334940 -0.535454 8.885812 -12.697363 1.509245 7.204379 9.626533 19.152830 3.953335 0.000000 0.000000 0.000000 -9.038345 -0.169670 -1.003460 6.357326 -0.927033 3.017044 -6.972075 -17.090939 13.228185 0.000000 0.000000 0.000000 -0.558382 -0.654186 13.708406 5.374274 -0.601170 -23.262075 -1.272031 -1.930066 22.180184 5.053695 -1.447381 -20.471437 0.000000 0.000000 0.000000 -20.698274 -12.493376 4.428351 -44.508013 -41.288564 8.566683 -90.638891 -83.909855 89.162427 0.000000 0.000000 0.000000 18.039643 3.414730 1.740304 40.089558 21.085514 0.659522 -84.060219 40.573646 -29.517960 0.000000 0.000000 0.000000
-0.005616 0.917562 0.005221 -2.277189 10.213054 -6.700106 11.202043 -0.554333 9.093738 -12.183258 1.398006 6.857738 9.484470 18.805243 3.402422 0.000000 0.000000 0.000000 -8.990758 -0.193344 -0.670989 6.382336 -0.936119 2.783625 -7.233357 -17.526477 13.134896 0.000000 0.000000 0.000000 -0.303357 -0.721732 14.186903 5.022994 -0.481282 -23.540367 -1.475653 -1.657863 22.040993 4.220010 -0.852629 -20.010757 0.000000 0.000000 0.000000 -20.824487 -12.783219 4.391300 -45.088884 -40.596755 8.486752 -84.298958 -83.875376 82.548060 0.000000 0.000000 0.000000 18.159140 3.234752 1.797504 39.761146 20.190905 0.309085 -83.174916 41.492727 -29.629572 0.000000 0.000000 0.000000
-0.005795 0.916929 0.005547 -2.403451 10.923788 -6.768467 11.216825 -0.593799 9.121094 -11.774263 1.309642 6.733579 9.287200 18.339897 2.827950 0.000000 0.000000 0.000000 -8.799306 -0.203251 -0.760717 6.247319 -0.942745 3.334147 -7.602047 -18.138243 12.996456 0.000000 0.000000 0.000000 -0.273869 -0.769975 14.658719 5.128320 -0.495008 -23.504512 -1.708882 -1.972168 21.403538 3.094351 -0.131856 -19.596566 0.000000 0.000000 0.000000 -21.331995 -12.352611 4.081823 -44.784584 -40.215419 8.338768 -71.780627 -83.468974 69.732800 0.000000 0.000000 0.000000 17.600168 3.545338 1.962151 39.392571 18.803355 -0.093056 -82.465419 42.678891 -30.316425 0.000000 0.000000 0.000000
-0.005896 0.916243 0.005839 -2.482501 11.398357 -6.779144 11.053728 -0.611509 9.461205 -11.230027 1.191797 6.042456 9.187805 18.039448 2.279370 0.000000 0.000000 0.000000 -8.701408 -0.211102 -0.782780 6.201582 -0.951308 3.572540 -7.849929 -18.562561 12.844598 0.000000 0.000000 0.000000 -0.092214 -0.833066 15.115237 4.959701 -0.417625 -23.930266 -2.056577 -1.947860 21.364736 2.625695 0.220566 -19.527620 0.000000 0.000000 0.000000 -21.171853 -12.201567 3.895442 -45.012954 -40.131822 8.379301 -63.737972 -82.747573 61.235040 0.000000 0.000000 0.000000 17.436563 3.273781 1.893896 38.994223 17.510913 -0.535385 -82.218228 44.590787 -31.729195 0.000000 0.000000 0.000000
